<svg xmlns="http://www.w3.org/2000/svg" viewBox="0 0 51.27 51.2"><defs><style>.cls-1{fill:#fff;}</style></defs><title>bannerRecurso 1pagina35</title><g id="Capa_2" data-name="Capa 2"><g id="Capa_1-2" data-name="Capa 1"><path class="cls-1" d="M0,11.64c0-1.16,0-2.32,0-3.48A4.38,4.38,0,0,1,3,4C5.51,3,8.06,2.12,10.6,1.17a2.84,2.84,0,0,1,2.42,0,6.78,6.78,0,0,0,5.43.28A44,44,0,0,1,33.87.14a39.06,39.06,0,0,1,10.8,2.13A15.47,15.47,0,0,1,49,4.61a5.48,5.48,0,0,1,2.28,4.68c-.05,1.67,0,3.34,0,5a5.38,5.38,0,0,1-2.11,4.48,14.35,14.35,0,0,1-4.63,2.5,1.4,1.4,0,0,0-1,1.12,4.16,4.16,0,0,1-2.8,3q-3.77,1.34-7.51,2.74a3.34,3.34,0,0,1-2.56,0c-1-.4-2-.73-3-1.1a2.66,2.66,0,0,1-2-2.77c0-.58-.16-.69-.68-.45A17.9,17.9,0,0,0,18.77,28l-.15.15c-.94,1-.82,1.58.45,2.12a16.78,16.78,0,0,0,3.28.91,29.19,29.19,0,0,1,5.53,1.28,4.6,4.6,0,0,1,1.66,1.12,2.5,2.5,0,0,1,0,3.57,6.32,6.32,0,0,1-3.13,1.71,36.38,36.38,0,0,1-6.72,1,35.14,35.14,0,0,0-7.15,1,3.7,3.7,0,0,0-.59.19c-.54.25-.62.58-.27,1.06a2.75,2.75,0,0,0,1.37.9,19.49,19.49,0,0,0,8.64.91c2.27-.19,4.43-1,6.69-1.24a9.29,9.29,0,0,1,5.11.52,3.31,3.31,0,0,1,1.79,4.71,11.2,11.2,0,0,1-1.86,2.85A.9.9,0,0,1,32.1,51,1,1,0,0,1,32,49.56a15.86,15.86,0,0,0,1.23-1.69c.07-.12.14-.23.21-.36.69-1.33.31-2.28-1.12-2.72a10.25,10.25,0,0,0-4.41-.11c-2.12.27-4.15,1-6.29,1.12a20,20,0,0,1-9.17-1,6.26,6.26,0,0,1-2.2-1.42,2.35,2.35,0,0,1,.59-3.9,9.2,9.2,0,0,1,3.2-.88c3.35-.45,6.74-.58,10.07-1.13a10.72,10.72,0,0,0,3.33-1c.43-.23.86-.49.86-1.08s-.43-.73-.82-.93a17.61,17.61,0,0,0-4.62-1.22,29.76,29.76,0,0,1-4.37-1.11,5.6,5.6,0,0,1-1.23-.66,2.47,2.47,0,0,1-.82-3.41,10.37,10.37,0,0,1,3.32-3.4,24.27,24.27,0,0,1,5.17-2.83.94.94,0,0,0,.7-1c0-1.16,0-2.32,0-3.48A4.45,4.45,0,0,1,28.72,13c2.4-.87,4.8-1.72,7.18-2.63a3.83,3.83,0,0,1,3,0c.94.39,1.9.72,2.87,1.05a2.53,2.53,0,0,1,1.62,1.32c.18.39.44.42.79.26.65-.29,1.31-.57,2-.88.18-.08.45-.12.43-.39s-.25-.25-.41-.33a21.49,21.49,0,0,0-5-1.82,45.13,45.13,0,0,0-13.1-1.23A43.49,43.49,0,0,0,19,9.63c-.72.19-1.06.46-1,1.26a6.21,6.21,0,0,1-.13,2.35,4.3,4.3,0,0,1-2.71,3c-2.64.94-5.27,1.92-7.9,2.88a2.87,2.87,0,0,1-2,0c-1.2-.43-2.4-.85-3.59-1.3A2.51,2.51,0,0,1,0,15.4c0-1.25,0-2.51,0-3.76ZM30.88,6.42a39.57,39.57,0,0,1,6,.43,28.07,28.07,0,0,1,11,3.4.52.52,0,0,0,.81-.15,2.39,2.39,0,0,0-.07-3.18,8,8,0,0,0-2.64-2c-4.29-2.12-8.91-2.74-13.61-3a46.27,46.27,0,0,0-8.8.4,35.58,35.58,0,0,0-5.22,1.09c-.24.07-.64.06-.51.49A12.31,12.31,0,0,1,18,7.24c0,.54.12.69.67.54A47,47,0,0,1,30.88,6.42ZM5.79,13c0,1.12,0,2.23,0,3.34S6,17.59,7,17.23l7.25-2.63a2.51,2.51,0,0,0,1.89-2.67q0-3.3,0-6.6c0-1.06-.27-1.23-1.28-.87L7.63,7.1A2.52,2.52,0,0,0,5.79,9.66C5.78,10.77,5.79,11.88,5.79,13Zm7-9.78A1.63,1.63,0,0,0,11.19,3c-2.43.9-4.88,1.77-7.31,2.66a2.6,2.6,0,0,0-2,2.88v6.05c0,1.35,0,1.33,1.29,1.83.55.21.74.14.73-.49,0-2.11,0-4.22,0-6.32A4.37,4.37,0,0,1,6.84,5.38c.82-.31,1.66-.6,2.48-.9Zm25.59,9.11a1.59,1.59,0,0,0-1.69-.2c-2.43.9-4.87,1.78-7.31,2.67a2.57,2.57,0,0,0-1.87,2.61c0,.88,0,1.76,0,2.64,0,.58.12.76.7.53a.79.79,0,0,1,1.13.49.88.88,0,0,1-.41,1.19,7.39,7.39,0,0,1-1,.42c-.21.09-.4.16-.46.45-.28,1.38,0,1.9,1.38,2.4.52.19.63.06.62-.45,0-2.09,0-4.17,0-6.26a4.43,4.43,0,0,1,3-4.35C34.45,13.75,36.36,13.06,38.38,12.32Zm-6.13,8.07a6.71,6.71,0,0,0,0,.91.77.77,0,0,0,1.54,0,5.41,5.41,0,0,0,0-.9,2,2,0,0,1,1.48-2.23c1-.37,1.94-.76,2.91-1.12.55-.2.93-.52.71-1.13s-.73-.55-1.22-.37c-1,.37-2,.76-3,1.15A3.43,3.43,0,0,0,32.25,20.39Z"/><path class="cls-1" d="M15.25,9.41c0,.69,0,1.39,0,2.08a2.34,2.34,0,0,1-1.71,2.35c-1.72.63-3.44,1.26-5.16,1.87-1,.37-1.65,0-1.67-1.12,0-1.5,0-3,0-4.52A2.19,2.19,0,0,1,8.22,7.94q2.76-1,5.54-2c.81-.29,1.4.17,1.48,1.12,0,.39,0,.79,0,1.18s0,.79,0,1.19Z"/></g></g></svg>